HIERARCHY
ROOT Hips
{
	OFFSET 0.000000 0.000000 0.000000
	CHANNELS 6 Xposition Yposition Zposition Zrotation Yrotation Xrotation 
	JOINT LHipJoint
	{
		OFFSET 0.000000 0.000000 0.000000
		CHANNELS 3 Zrotation Yrotation Xrotation
		JOINT LeftUpLeg
		{
			OFFSET 1.363060 -1.794630 0.839290
			CHANNELS 3 Zrotation Yrotation Xrotation
			JOINT LeftLeg
			{
				OFFSET 2.448110 -6.726130 0.000000
				CHANNELS 3 Zrotation Yrotation Xrotation
				JOINT LeftFoot
				{
					OFFSET 2.562200 -7.039590 0.000000
					CHANNELS 3 Zrotation Yrotation Xrotation
					JOINT LeftToeBase
					{
						OFFSET 0.157640 -0.433110 2.322550
						CHANNELS 3 Zrotation Yrotation Xrotation
						End Site
						{
							OFFSET 0.000000 0.000000 0.000000
						}
					}
				}
			}
		}
	}
	JOINT RHipJoint
	{
		OFFSET 0.000000 0.000000 0.000000
		CHANNELS 3 Zrotation Yrotation Xrotation
		JOINT RightUpLeg
		{
			OFFSET -1.305520 -1.794630 0.839290
			CHANNELS 3 Zrotation Yrotation Xrotation
			JOINT RightLeg
			{
				OFFSET -2.542530 -6.985550 0.000000
				CHANNELS 3 Zrotation Yrotation Xrotation
				JOINT RightFoot
				{
					OFFSET -2.568260 -7.056230 0.000000
					CHANNELS 3 Zrotation Yrotation Xrotation
					JOINT RightToeBase
					{
						OFFSET -0.164730 -0.452590 2.363150
						CHANNELS 3 Zrotation Yrotation Xrotation
						End Site
						{
							OFFSET 0.000000 0.000000 0.000000
						}
					}
				}
			}
		}
	}
	JOINT LowerBack
	{
		OFFSET 0.000000 0.000000 0.000000
		CHANNELS 3 Zrotation Yrotation Xrotation
		JOINT Spine
		{
			OFFSET 0.028270 2.035590 -0.193380
			CHANNELS 3 Zrotation Yrotation Xrotation
			JOINT Spine1
			{
				OFFSET 0.056720 2.048850 -0.042750
				CHANNELS 3 Zrotation Yrotation Xrotation
				JOINT Neck
				{
					OFFSET 0.000000 0.000000 0.000000
					CHANNELS 3 Zrotation Yrotation Xrotation
					JOINT Neck1
					{
						OFFSET -0.054170 1.746240 0.172020
						CHANNELS 3 Zrotation Yrotation Xrotation
						JOINT Head
						{
							OFFSET 0.104070 1.761360 -0.123970
							CHANNELS 3 Zrotation Yrotation Xrotation
							End Site
							{
								OFFSET 0.000000 0.000000 0.000000
							}
						}
					}
				}
				JOINT LeftShoulder
				{
					OFFSET 0.000000 0.000000 0.000000
					CHANNELS 3 Zrotation Yrotation Xrotation
					JOINT LeftArm
					{
						OFFSET 3.362410 1.200890 -0.311210
						CHANNELS 3 Zrotation Yrotation Xrotation
						JOINT LeftForeArm
						{
							OFFSET 4.983000 -0.000000 -0.000000
							CHANNELS 3 Zrotation Yrotation Xrotation
							JOINT LeftHand
							{
								OFFSET 3.483560 -0.000000 -0.000000
								CHANNELS 3 Zrotation Yrotation Xrotation
								JOINT LeftFingerBase
								{
									OFFSET 0.000000 0.000000 0.000000
									CHANNELS 3 Zrotation Yrotation Xrotation
									JOINT LeftHandIndex1
									{
										OFFSET 0.715260 -0.000000 -0.000000
										CHANNELS 3 Zrotation Yrotation Xrotation
										End Site
										{
											OFFSET 0.000000 0.000000 0.000000
										}
									}
								}
								JOINT LThumb
								{
									OFFSET 0.000000 0.000000 0.000000
									CHANNELS 3 Zrotation Yrotation Xrotation
									End Site
									{
										OFFSET 0.000000 0.000000 0.000000
									}
								}
							}
						}
					}
				}
				JOINT RightShoulder
				{
					OFFSET 0.000000 0.000000 0.000000
					CHANNELS 3 Zrotation Yrotation Xrotation
					JOINT RightArm
					{
						OFFSET -3.136600 1.374050 -0.404650
						CHANNELS 3 Zrotation Yrotation Xrotation
						JOINT RightForeArm
						{
							OFFSET -5.241900 -0.000000 -0.000000
							CHANNELS 3 Zrotation Yrotation Xrotation
							JOINT RightHand
							{
								OFFSET -3.444170 -0.000000 -0.000000
								CHANNELS 3 Zrotation Yrotation Xrotation
								JOINT RightFingerBase
								{
									OFFSET 0.000000 0.000000 0.000000
									CHANNELS 3 Zrotation Yrotation Xrotation
									JOINT RightHandIndex1
									{
										OFFSET -0.622530 -0.000000 -0.000000
										CHANNELS 3 Zrotation Yrotation Xrotation
										End Site
										{
											OFFSET 0.000000 0.000000 0.000000
										}
									}
								}
								JOINT RThumb
								{
									OFFSET 0.000000 0.000000 0.000000
									CHANNELS 3 Zrotation Yrotation Xrotation
									End Site
									{
										OFFSET 0.000000 0.000000 0.000000
									}
								}
							}
						}
					}
				}
			}
		}
	}
}
MOTION
Frames: 10
Frame Time: 0.008333
-21.587320 16.387023 -0.163043 9.510211 83.735030 14.879260 -9.875078 0.505783 2.724325 -14.946920 5.202398 -44.239558 -1.830854 1.184557 30.303703 2.017581 10.844573 -3.956864 1.122200 0.000000 -21.129600 9.010826 -4.788089 0.466442 4.726452 -5.621281 18.572369 1.854809 -1.442785 14.640060 0.613325 5.866898 3.551673 0.825600 -0.000000 -74.339699 -7.308852 1.358605 -5.765724 -2.220122 1.677393 -3.485844 -5.583773 1.555778 2.728498 8.249147 -11.097148 -9.952761 -1.940837 -0.127857 -0.589784 0.000000 0.000000 0.000000 -4.302368 29.152972 0.770187 -72.698144 24.948596 5.559338 -3.646791 -25.826891 -0.010838 -2.683885 3.960948 -0.093425 -0.069477 -0.123940 -0.000000 0.000000 0.000000 0.000000 0.000000 0.000000 0.000000 10.286603 -4.418067 -0.501964 52.176725 14.396728 20.141573 1.584742 52.362936 0.013087 4.435694 3.678924 0.148517 0.008535 -0.146556 0.000000 0.000000 0.000000 0.000000 0.000000 0.000000 0.000000 
-21.407494 16.408113 -0.171656 9.564545 83.581873 14.728774 -9.926312 0.564108 2.647135 -14.974458 5.602631 -43.819605 -1.771515 1.240202 31.080435 2.012939 10.927140 -3.867718 1.125200 -0.000000 -20.472500 9.088052 -4.916469 0.515349 4.165574 -5.694956 18.399992 1.701128 -1.633864 15.733630 0.658340 6.520674 5.757703 1.172801 0.000000 -76.815900 -7.573089 1.362330 -5.836618 -2.286017 1.701102 -3.508699 -5.615217 1.578190 2.698994 8.326052 -11.205240 -9.907857 -1.932655 -0.128064 -0.576850 0.000000 0.000000 0.000000 -4.359329 29.162749 0.718934 -72.364400 24.842524 5.557657 -3.660450 -25.821830 -0.010987 -2.735160 3.981709 -0.095727 -0.069659 -0.123874 -0.000000 0.000000 0.000000 0.000000 0.000000 0.000000 0.000000 10.342025 -4.511051 -0.540397 52.513375 13.750611 20.444124 1.584913 52.491640 0.013076 4.487675 3.659375 0.149420 0.008412 -0.144804 0.000000 0.000000 0.000000 0.000000 0.000000 0.000000 0.000000 
-21.227780 16.430931 -0.180952 9.620446 83.401724 14.564043 -9.975124 0.630024 2.558412 -15.022349 6.076579 -43.310916 -1.735204 1.282382 31.728335 1.990752 10.887498 -3.904470 1.088500 -0.000001 -19.781300 9.177137 -5.039451 0.563919 3.568310 -5.786117 18.104770 1.527461 -1.827006 17.009631 0.679713 7.232928 8.064960 1.606400 -0.000000 -79.032200 -7.829956 1.363075 -5.897066 -2.349808 1.721653 -3.529528 -5.644395 1.597670 2.670378 8.401499 -11.309939 -9.868491 -1.925454 -0.128251 -0.565678 0.000000 0.000000 0.000000 -4.426969 29.179399 0.669324 -72.035365 24.701606 5.536522 -3.673529 -25.785607 -0.011096 -2.768085 4.003798 -0.097428 -0.069891 -0.123684 -0.000000 0.000000 0.000000 0.000000 0.000000 0.000000 0.000000 10.403465 -4.600492 -0.575513 52.839253 13.118489 20.781144 1.586127 52.580789 0.013051 4.555118 3.624961 0.150220 0.008149 -0.142619 0.000000 0.000000 0.000000 0.000000 0.000000 0.000000 0.000000 
-21.048769 16.454909 -0.190721 9.740670 83.198553 14.446721 -10.020357 0.702059 2.456590 -15.094826 6.617302 -42.714681 -1.720443 1.311906 32.259123 1.952798 10.736004 -4.066830 1.014800 -0.000000 -19.052800 9.283913 -5.156036 0.607428 2.916285 -5.924497 17.660156 1.331917 -2.020399 18.506688 0.673437 8.020147 10.484431 2.143200 -0.000000 -80.903200 -8.085507 1.357582 -5.939800 -2.411933 1.736362 -3.548150 -5.669953 1.611411 2.637499 8.472803 -11.412730 -9.832877 -1.919123 -0.128425 -0.555760 0.000000 0.000000 0.000000 -4.511963 29.170954 0.621845 -71.719696 24.558193 5.473597 -3.685340 -25.749650 -0.011152 -2.780305 4.025699 -0.098330 -0.070115 -0.123381 -0.000000 0.000000 0.000000 0.000000 0.000000 0.000000 0.000000 10.466021 -4.690632 -0.603793 53.154415 12.516131 21.159522 1.589286 52.626064 0.013026 4.643027 3.579229 0.151217 0.007752 -0.140052 0.000000 0.000000 0.000000 0.000000 0.000000 0.000000 0.000000 
-20.871332 16.479477 -0.201308 9.782438 82.966462 14.236518 -10.064760 0.781782 2.341647 -15.171165 7.231791 -42.052596 -1.724923 1.333745 32.697972 1.901076 10.480712 -4.346899 0.908700 0.000000 -18.354000 9.398905 -5.256798 0.648259 2.257004 -6.080139 17.088395 1.116835 -2.204795 20.192583 0.632291 8.822636 13.011253 2.774400 0.000000 -82.357300 -8.322503 1.346199 -5.963528 -2.468860 1.744133 -3.562469 -5.691735 1.618608 2.607009 8.540087 -11.501458 -9.806339 -1.913977 -0.128510 -0.548647 0.000000 0.000000 0.000000 -4.599885 29.175633 0.580266 -71.429939 24.368730 5.400047 -3.695701 -25.677720 -0.011140 -2.768776 4.041824 -0.098330 -0.070388 -0.122856 -0.000000 0.000000 0.000000 0.000000 0.000000 0.000000 0.000000 10.531407 -4.767558 -0.627894 53.442988 11.949023 21.576890 1.592130 52.643112 0.012983 4.756087 3.516438 0.152211 0.007003 -0.137046 0.000000 0.000000 0.000000 0.000000 0.000000 0.000000 0.000000 
-20.696291 16.504068 -0.212348 9.868569 82.720423 14.057842 -10.105993 0.865087 2.214223 -15.259356 7.895993 -41.327335 -1.744595 1.347193 33.056990 1.840765 10.154745 -4.728070 0.780200 -0.000000 -17.689901 9.529795 -5.341188 0.681149 1.568045 -6.286725 16.365646 0.884721 -2.376817 22.095399 0.553644 9.647889 15.640659 3.507000 0.000000 -83.247800 -8.554908 1.323665 -5.962244 -2.522418 1.740854 -3.572612 -5.708326 1.614923 2.572972 8.603137 -11.593233 -9.786695 -1.909476 -0.128494 -0.543646 0.000000 0.000000 0.000000 -4.699793 29.143770 0.543085 -71.170399 24.181557 5.287185 -3.704292 -25.615581 -0.011071 -2.737313 4.054204 -0.097429 -0.070622 -0.122175 -0.000000 0.000000 0.000000 0.000000 0.000000 0.000000 0.000000 10.598547 -4.854171 -0.642758 53.706857 11.447377 22.053814 1.596163 52.619409 0.012937 4.887033 3.446762 0.153302 0.006138 -0.133723 0.000000 0.000000 0.000000 0.000000 0.000000 0.000000 0.000000 
-20.524032 16.528173 -0.223986 9.898772 82.465102 13.812686 -10.146518 0.951675 2.076521 -15.338320 8.602526 -40.559182 -1.775327 1.356271 33.362265 1.775892 9.780566 -5.193335 0.637600 0.000000 -17.122600 9.666462 -5.400622 0.706926 0.899187 -6.516222 15.527906 0.644358 -2.527610 24.163436 0.435816 10.418241 18.330205 4.303900 0.000000 -83.475900 -8.769888 1.289068 -5.934929 -2.569895 1.724505 -3.576948 -5.719944 1.598523 2.540376 8.660811 -11.659728 -9.774653 -1.906270 -0.128391 -0.541088 0.000000 0.000000 0.000000 -4.786799 29.111678 0.516134 -70.953170 23.950039 5.172357 -3.711919 -25.519742 -0.010948 -2.688802 4.060663 -0.095727 -0.070908 -0.121220 -0.000000 0.000000 0.000000 0.000000 0.000000 0.000000 0.000000 10.663071 -4.919939 -0.653913 53.943716 10.980131 22.552339 1.598969 52.582663 0.012874 5.049087 3.361154 0.154388 0.004779 -0.130035 0.000000 0.000000 0.000000 0.000000 0.000000 0.000000 0.000000 
-20.355325 16.551409 -0.235722 9.997018 82.219460 13.629714 -10.183467 1.036746 1.931802 -15.417069 9.315713 -39.753029 -1.812020 1.359491 33.621419 1.712814 9.400594 -5.718197 0.491400 0.000000 -16.667601 9.814806 -5.435270 0.720888 0.233980 -6.793942 14.560208 0.404003 -2.655352 26.407070 0.281282 11.109875 21.036460 5.137000 -0.000000 -82.892500 -8.984038 1.237359 -5.879185 -2.613923 1.691346 -3.575844 -5.725676 1.565442 2.504687 8.716431 -11.735507 -9.769310 -1.903464 -0.128154 -0.540559 0.000000 0.000000 0.000000 -4.872627 29.025399 0.495302 -70.774426 23.725825 5.034478 -3.718290 -25.442450 -0.010798 -2.633322 4.066977 -0.093825 -0.071123 -0.120107 -0.000000 0.000000 0.000000 0.000000 0.000000 0.000000 0.000000 10.730800 -5.006715 -0.655397 54.152327 10.592615 23.109999 1.602191 52.513949 0.012792 5.220019 3.275231 0.155573 0.003398 -0.126162 0.000000 0.000000 0.000000 0.000000 0.000000 0.000000 0.000000 
-20.190301 16.573405 -0.247653 10.091108 81.993520 13.437169 -10.219020 1.119733 1.783976 -15.476651 10.018666 -38.922095 -1.850425 1.359903 33.855029 1.655285 9.038389 -6.286279 0.347000 0.000000 -16.361500 9.964498 -5.440381 0.721043 -0.386164 -7.101257 13.505582 0.175919 -2.757380 28.768036 0.097704 11.633203 23.666208 5.927699 -0.000000 -81.453900 -9.187997 1.168147 -5.793816 -2.652748 1.640170 -3.568141 -5.726447 1.514637 2.469182 8.768270 -11.784978 -9.768141 -1.901951 -0.127866 -0.541532 0.000000 0.000000 0.000000 -4.929734 28.918574 0.486686 -70.639729 23.462234 4.916509 -3.724780 -25.339652 -0.010648 -2.579965 4.076751 -0.092022 -0.071361 -0.118735 -0.000000 0.000000 0.000000 0.000000 0.000000 0.000000 0.000000 10.794514 -5.075636 -0.654401 54.340553 10.228527 23.663424 1.603641 52.447245 0.012691 5.415800 3.178316 0.156654 0.001564 -0.122081 0.000000 0.000000 0.000000 0.000000 0.000000 0.000000 0.000000 
-20.029566 16.594133 -0.259310 10.277559 81.801960 13.337411 -10.250458 1.197067 1.637803 -15.525719 10.674512 -38.068727 -1.886187 1.355747 34.062221 1.608496 8.731180 -6.874290 0.210300 0.000000 -16.211000 10.118613 -5.419035 0.703427 -0.973037 -7.453428 12.355965 -0.032074 -2.838252 31.245032 -0.106452 11.928732 26.131957 6.600900 0.000000 -79.157100 -9.396184 1.078850 -5.680145 -2.689108 1.569483 -3.554682 -5.722163 1.444443 2.430289 8.821637 -11.853988 -9.770955 -1.900756 -0.127479 -0.543727 0.000000 0.000000 0.000000 -4.975080 28.738538 0.483644 -70.535622 23.211996 4.804603 -3.730887 -25.266970 -0.010534 -2.541885 4.096520 -0.091021 -0.071478 -0.117267 -0.000000 0.000000 0.000000 0.000000 0.000000 0.000000 0.000000 10.864968 -5.179484 -0.644532 54.504213 9.942424 24.262194 1.605022 52.358231 0.012562 5.602080 3.090575 0.157534 -0.000070 -0.118027 0.000000 0.000000 0.000000 0.000000 0.000000 0.000000 0.000000 
